<?xml version="1.0" encoding="UTF-8"?>
<svg width="58px" height="46px" viewBox="0 0 58 46" version="1.1" xmlns="http://www.w3.org/2000/svg" xmlns:xlink="http://www.w3.org/1999/xlink">
    <!-- Generator: Sketch 42 (36781) - http://www.bohemiancoding.com/sketch -->
    <title>Group 2</title>
    <desc>Created with Sketch.</desc>
    <defs>
        <path d="M47,24 L47,46 L12,46 L12,24 L10.3738091,24 L0,24 L28.609375,0 L58,24 L47,24 Z" id="path-1"></path>
        <mask id="mask-2" maskContentUnits="userSpaceOnUse" maskUnits="objectBoundingBox" x="0" y="0" width="58" height="46" fill="white">
            <use xlink:href="#path-1"></use>
        </mask>
    </defs>
    <g id="Page-1" stroke="none" stroke-width="1" fill="none" fill-rule="evenodd">
        <g id="Artboard" transform="translate(-13.000000, -12.000000)">
            <g id="Group" transform="translate(13.000000, 12.000000)">
                <g id="Group-2">
                    <use id="Combined-Shape" stroke="#FFFFFF" mask="url(#mask-2)" stroke-width="6" xlink:href="#path-1"></use>
                    <path d="M35.358817,22.5502232 C35.5128356,22.721355 35.5427832,22.9095972 35.4486607,23.1149554 L28.5178571,37.9648438 C28.4066215,38.1787585 28.2269358,38.2857143 27.9787946,38.2857143 C27.9445683,38.2857143 27.884673,38.2771578 27.7991071,38.2600446 C27.6536451,38.2172617 27.5445502,38.1359753 27.4718192,38.016183 C27.3990882,37.8963908 27.3798361,37.7680438 27.4140625,37.6311384 L29.9425223,27.2606027 L24.7315848,28.5569196 C24.6973585,28.5654762 24.6460197,28.5697545 24.577567,28.5697545 C24.4235483,28.5697545 24.2909232,28.5226939 24.1796875,28.4285714 C24.0256689,28.3002226 23.9700519,28.1333716 24.0128348,27.9280134 L26.5926339,17.3392857 C26.6268603,17.2194934 26.695312,17.1210941 26.7979911,17.0440848 C26.9006702,16.9670755 27.0204606,16.9285714 27.1573661,16.9285714 L31.3671875,16.9285714 C31.5297627,16.9285714 31.6666661,16.9820493 31.7779018,17.0890067 C31.8891375,17.1959641 31.9447545,17.3221719 31.9447545,17.4676339 C31.9447545,17.5360867 31.9233633,17.6130948 31.8805804,17.6986607 L29.6858259,23.641183 L34.7684152,22.3833705 C34.8368679,22.3662574 34.8882067,22.3577009 34.922433,22.3577009 C35.0850083,22.3577009 35.2304681,22.4218744 35.358817,22.5502232 Z" id="bolt---FontAwesome" fill="#FFFFFF"></path>
                </g>
            </g>
        </g>
    </g>
</svg>