<?xml version="1.0" encoding="UTF-8"?>
<svg width="274px" height="46px" viewBox="0 0 274 46" version="1.1" xmlns="http://www.w3.org/2000/svg" xmlns:xlink="http://www.w3.org/1999/xlink">
    <!-- Generator: Sketch 42 (36781) - http://www.bohemiancoding.com/sketch -->
    <title>Group</title>
    <desc>Created with Sketch.</desc>
    <defs>
        <path d="M47,24 L47,46 L12,46 L12,24 L10.3738091,24 L0,24 L28.609375,0 L58,24 L47,24 Z" id="path-1"></path>
        <mask id="mask-2" maskContentUnits="userSpaceOnUse" maskUnits="objectBoundingBox" x="0" y="0" width="58" height="46" fill="white">
            <use xlink:href="#path-1"></use>
        </mask>
    </defs>
    <g id="Page-1" stroke="none" stroke-width="1" fill="none" fill-rule="evenodd">
        <g id="Artboard" transform="translate(-13.000000, -12.000000)">
            <g id="Group" transform="translate(13.000000, 12.000000)">
                <path d="M76.528,33.496 C77.0826694,34.3280042 77.7919957,34.9413314 78.656,35.336 C79.5200043,35.7306686 80.4106621,35.928 81.328,35.928 C81.8400026,35.928 82.362664,35.8480008 82.896,35.688 C83.429336,35.5279992 83.9146645,35.2880016 84.352,34.968 C84.7893355,34.6479984 85.1466653,34.2533357 85.424,33.784 C85.7013347,33.3146643 85.84,32.7706698 85.84,32.152 C85.84,31.277329 85.5626694,30.610669 85.008,30.152 C84.4533306,29.693331 83.7653374,29.3093349 82.944,29 C82.1226626,28.6906651 81.2266715,28.3920014 80.256,28.104 C79.2853285,27.8159986 78.3893374,27.4160026 77.568,26.904 C76.7466626,26.3919974 76.0586694,25.7040043 75.504,24.84 C74.9493306,23.9759957 74.672,22.8080074 74.672,21.336 C74.672,20.6746634 74.8159986,19.9706704 75.104,19.224 C75.3920014,18.4773296 75.8453302,17.7946698 76.464,17.176 C77.0826698,16.5573302 77.8773285,16.0400021 78.848,15.624 C79.8186715,15.2079979 80.9866598,15 82.352,15 C83.5893395,15 84.7733277,15.170665 85.904,15.512 C87.0346723,15.853335 88.0266624,16.5466614 88.88,17.592 L86.384,19.864 C85.9999981,19.2666637 85.4560035,18.7866685 84.752,18.424 C84.0479965,18.0613315 83.2480045,17.88 82.352,17.88 C81.4986624,17.88 80.7893362,17.9919989 80.224,18.216 C79.6586638,18.4400011 79.205335,18.7279982 78.864,19.08 C78.522665,19.4320018 78.2826674,19.8106646 78.144,20.216 C78.0053326,20.6213354 77.936,20.994665 77.936,21.336 C77.936,22.2960048 78.2133306,23.0319974 78.768,23.544 C79.3226694,24.0560026 80.0106626,24.4719984 80.832,24.792 C81.6533374,25.1120016 82.5493285,25.3999987 83.52,25.656 C84.4906715,25.9120013 85.3866626,26.269331 86.208,26.728 C87.0293374,27.186669 87.7173306,27.8053294 88.272,28.584 C88.8266694,29.3626706 89.104,30.4346598 89.104,31.8 C89.104,32.8880054 88.8960021,33.869329 88.48,34.744 C88.0639979,35.618671 87.5040035,36.3546637 86.8,36.952 C86.0959965,37.5493363 85.2640048,38.0079984 84.304,38.328 C83.3439952,38.6480016 82.3200054,38.808 81.232,38.808 C79.7813261,38.808 78.4053398,38.5520026 77.104,38.04 C75.8026602,37.5279974 74.7680038,36.738672 74,35.672 L76.528,33.496 Z M93.424,15.576 L98,15.576 L105.2,32.728 L105.328,32.728 L112.464,15.576 L117.04,15.576 L117.04,38.232 L113.968,38.232 L113.968,19.608 L113.904,19.608 L106.256,38.232 L104.208,38.232 L96.56,19.608 L96.496,19.608 L96.496,38.232 L93.424,38.232 L93.424,15.576 Z M129.744,15.576 L132.528,15.576 L142.224,38.232 L138.64,38.232 L136.368,32.632 L125.584,32.632 L123.344,38.232 L119.76,38.232 L129.744,15.576 Z M135.248,29.944 L131.024,19.544 L130.96,19.544 L126.672,29.944 L135.248,29.944 Z M145.168,15.576 L153.136,15.576 C154.586674,15.576 155.781329,15.7733314 156.72,16.168 C157.658671,16.5626686 158.399997,17.063997 158.944,17.672 C159.488003,18.280003 159.866666,18.9626629 160.08,19.72 C160.293334,20.4773371 160.4,21.2079965 160.4,21.912 C160.4,22.637337 160.272001,23.3359966 160.016,24.008 C159.759999,24.6800034 159.392002,25.2879973 158.912,25.832 C158.431998,26.3760027 157.845337,26.8346648 157.152,27.208 C156.458663,27.5813352 155.685338,27.8106662 154.832,27.896 L161.264,38.232 L157.424,38.232 L151.664,28.248 L148.24,28.248 L148.24,38.232 L145.168,38.232 L145.168,15.576 Z M148.24,25.56 L152.272,25.56 C152.869336,25.56 153.46133,25.5120005 154.048,25.416 C154.63467,25.3199995 155.157331,25.1440013 155.616,24.888 C156.074669,24.6319987 156.442665,24.2640024 156.72,23.784 C156.997335,23.3039976 157.136,22.6800038 157.136,21.912 C157.136,21.1439962 156.997335,20.5200024 156.72,20.04 C156.442665,19.5599976 156.074669,19.1920013 155.616,18.936 C155.157331,18.6799987 154.63467,18.5040005 154.048,18.408 C153.46133,18.3119995 152.869336,18.264 152.272,18.264 L148.24,18.264 L148.24,25.56 Z M168.88,18.456 L161.584,18.456 L161.584,15.576 L179.248,15.576 L179.248,18.456 L171.952,18.456 L171.952,38.232 L168.88,38.232 L168.88,18.456 Z M191.408,15.576 L194.48,15.576 L194.48,24.984 L206.224,24.984 L206.224,15.576 L209.296,15.576 L209.296,38.232 L206.224,38.232 L206.224,27.864 L194.48,27.864 L194.48,38.232 L191.408,38.232 L191.408,15.576 Z M222.224,15.576 L225.008,15.576 L234.704,38.232 L231.12,38.232 L228.848,32.632 L218.064,32.632 L215.824,38.232 L212.24,38.232 L222.224,15.576 Z M227.728,29.944 L223.504,19.544 L223.44,19.544 L219.152,29.944 L227.728,29.944 Z M240.304,15.576 L240.304,29.464 C240.304,30.1680035 240.399999,30.8986629 240.592,31.656 C240.784001,32.4133371 241.103998,33.1119968 241.552,33.752 C242.000002,34.3920032 242.586663,34.9146646 243.312,35.32 C244.037337,35.7253354 244.933328,35.928 246,35.928 C247.066672,35.928 247.962663,35.7253354 248.688,35.32 C249.413337,34.9146646 249.999998,34.3920032 250.448,33.752 C250.896002,33.1119968 251.215999,32.4133371 251.408,31.656 C251.600001,30.8986629 251.696,30.1680035 251.696,29.464 L251.696,15.576 L254.768,15.576 L254.768,29.944 C254.768,31.2666733 254.544002,32.4666613 254.096,33.544 C253.647998,34.6213387 253.029337,35.5546627 252.24,36.344 C251.450663,37.1333373 250.522672,37.7413312 249.456,38.168 C248.389328,38.5946688 247.23734,38.808 246,38.808 C244.76266,38.808 243.610672,38.5946688 242.544,38.168 C241.477328,37.7413312 240.549337,37.1333373 239.76,36.344 C238.970663,35.5546627 238.352002,34.6213387 237.904,33.544 C237.455998,32.4666613 237.232,31.2666733 237.232,29.944 L237.232,15.576 L240.304,15.576 Z M260.848,33.496 C261.402669,34.3280042 262.111996,34.9413314 262.976,35.336 C263.840004,35.7306686 264.730662,35.928 265.648,35.928 C266.160003,35.928 266.682664,35.8480008 267.216,35.688 C267.749336,35.5279992 268.234664,35.2880016 268.672,34.968 C269.109336,34.6479984 269.466665,34.2533357 269.744,33.784 C270.021335,33.3146643 270.16,32.7706698 270.16,32.152 C270.16,31.277329 269.882669,30.610669 269.328,30.152 C268.773331,29.693331 268.085337,29.3093349 267.264,29 C266.442663,28.6906651 265.546672,28.3920014 264.576,28.104 C263.605328,27.8159986 262.709337,27.4160026 261.888,26.904 C261.066663,26.3919974 260.378669,25.7040043 259.824,24.84 C259.269331,23.9759957 258.992,22.8080074 258.992,21.336 C258.992,20.6746634 259.135999,19.9706704 259.424,19.224 C259.712001,18.4773296 260.16533,17.7946698 260.784,17.176 C261.40267,16.5573302 262.197328,16.0400021 263.168,15.624 C264.138672,15.2079979 265.30666,15 266.672,15 C267.90934,15 269.093328,15.170665 270.224,15.512 C271.354672,15.853335 272.346662,16.5466614 273.2,17.592 L270.704,19.864 C270.319998,19.2666637 269.776004,18.7866685 269.072,18.424 C268.367996,18.0613315 267.568004,17.88 266.672,17.88 C265.818662,17.88 265.109336,17.9919989 264.544,18.216 C263.978664,18.4400011 263.525335,18.7279982 263.184,19.08 C262.842665,19.4320018 262.602667,19.8106646 262.464,20.216 C262.325333,20.6213354 262.256,20.994665 262.256,21.336 C262.256,22.2960048 262.533331,23.0319974 263.088,23.544 C263.642669,24.0560026 264.330663,24.4719984 265.152,24.792 C265.973337,25.1120016 266.869328,25.3999987 267.84,25.656 C268.810672,25.9120013 269.706663,26.269331 270.528,26.728 C271.349337,27.186669 272.037331,27.8053294 272.592,28.584 C273.146669,29.3626706 273.424,30.4346598 273.424,31.8 C273.424,32.8880054 273.216002,33.869329 272.8,34.744 C272.383998,35.618671 271.824004,36.3546637 271.12,36.952 C270.415996,37.5493363 269.584005,38.0079984 268.624,38.328 C267.663995,38.6480016 266.640005,38.808 265.552,38.808 C264.101326,38.808 262.72534,38.5520026 261.424,38.04 C260.12266,37.5279974 259.088004,36.738672 258.32,35.672 L260.848,33.496 Z" id="SMART-HAUS" fill="#FFFFFF"></path>
                <use id="Combined-Shape" stroke="#FFFFFF" mask="url(#mask-2)" stroke-width="6" xlink:href="#path-1"></use>
                <path d="M35.358817,22.5502232 C35.5128356,22.721355 35.5427832,22.9095972 35.4486607,23.1149554 L28.5178571,37.9648438 C28.4066215,38.1787585 28.2269358,38.2857143 27.9787946,38.2857143 C27.9445683,38.2857143 27.884673,38.2771578 27.7991071,38.2600446 C27.6536451,38.2172617 27.5445502,38.1359753 27.4718192,38.016183 C27.3990882,37.8963908 27.3798361,37.7680438 27.4140625,37.6311384 L29.9425223,27.2606027 L24.7315848,28.5569196 C24.6973585,28.5654762 24.6460197,28.5697545 24.577567,28.5697545 C24.4235483,28.5697545 24.2909232,28.5226939 24.1796875,28.4285714 C24.0256689,28.3002226 23.9700519,28.1333716 24.0128348,27.9280134 L26.5926339,17.3392857 C26.6268603,17.2194934 26.695312,17.1210941 26.7979911,17.0440848 C26.9006702,16.9670755 27.0204606,16.9285714 27.1573661,16.9285714 L31.3671875,16.9285714 C31.5297627,16.9285714 31.6666661,16.9820493 31.7779018,17.0890067 C31.8891375,17.1959641 31.9447545,17.3221719 31.9447545,17.4676339 C31.9447545,17.5360867 31.9233633,17.6130948 31.8805804,17.6986607 L29.6858259,23.641183 L34.7684152,22.3833705 C34.8368679,22.3662574 34.8882067,22.3577009 34.922433,22.3577009 C35.0850083,22.3577009 35.2304681,22.4218744 35.358817,22.5502232 Z" id="bolt---FontAwesome" fill="#FFFFFF"></path>
            </g>
        </g>
    </g>
</svg>